<svg width="217" height="120" viewBox="0 0 217 120" fill="none" xmlns="http://www.w3.org/2000/svg">
<path d="M89.1152 67.1038C89.0536 66.5136 89.5164 66 90.1098 66H127.89C128.484 66 128.946 66.5136 128.885 67.1038L123.46 119.104C123.407 119.613 122.977 120 122.465 120H95.5349C95.0228 120 94.5934 119.613 94.5403 119.104L89.1152 67.1038Z" fill="#E1E1E1"/>
<path d="M91.8526 60.2693C91.1896 60.8887 91.6279 62 92.5353 62H125.465C126.372 62 126.81 60.8887 126.147 60.2693L122.936 57.2693C122.751 57.0962 122.507 57 122.253 57H95.7465C95.4931 57 95.2491 57.0962 95.0639 57.2693L91.8526 60.2693Z" fill="white"/>
<path d="M87.2065 66.8267C87.0988 67.4389 87.5698 68 88.1914 68H129.738C130.383 68 130.859 67.3991 130.712 66.7715L130.008 63.7715C129.902 63.3195 129.498 63 129.034 63H88.7194C88.234 63 87.8186 63.3486 87.7345 63.8267L87.2065 66.8267Z" fill="white"/>
<rect x="89" y="61" width="40" height="3" rx="1" fill="white"/>
<g style="mix-blend-mode:difference">
<path d="M88.2896 33.7621C88.2896 33.7621 71.0736 48.8532 73.4766 78.7274C73.4766 78.7274 75.5497 82.5736 80.8867 78.7274C80.8867 78.7274 76.4392 40.86 106.072 33.7621H88.2896Z" fill="#E5674E"/>
<path d="M127.994 33.7621C127.994 33.7621 145.21 48.8532 142.807 78.7274C142.807 78.7274 140.734 82.5736 135.397 78.7274C135.397 78.7274 139.844 40.86 110.211 33.7621H127.994Z" fill="#E5674E"/>
<path d="M121.029 8.04929H93.1962C86.481 8.04929 81.0374 13.4846 81.0374 20.1895V24.7519C81.0374 31.4567 86.481 36.8921 93.1962 36.8921H121.029C127.744 36.8921 133.188 31.4567 133.188 24.7519V20.1895C133.188 13.4846 127.744 8.04929 121.029 8.04929Z" fill="#E5674E"/>
<path d="M89.5733 30.3528L48.8862 29.214C47.2985 29.1693 45.7907 28.5084 44.683 27.3717C43.5754 26.235 42.9551 24.7119 42.9539 23.126V21.5861C42.9541 20.0168 43.5606 18.5082 44.6469 17.3742C45.7332 16.2401 47.2157 15.5681 48.7858 15.4981L89.4729 13.6788C90.2966 13.6421 91.1192 13.7723 91.8911 14.0617C92.663 14.351 93.3683 14.7935 93.9642 15.3624C94.5601 15.9314 95.0345 16.6149 95.3586 17.3719C95.6827 18.1289 95.8498 18.9436 95.85 19.7668V24.2863C95.8465 25.099 95.6803 25.9028 95.3611 26.6503C95.0419 27.3979 94.5762 28.0742 93.9913 28.6395C93.4065 29.2047 92.7144 29.6475 91.9557 29.9417C91.1969 30.236 90.3869 30.3757 89.5733 30.3528Z" fill="#E5674E"/>
<path d="M126.416 30.3528L167.103 29.214C168.691 29.1693 170.198 28.5084 171.306 27.3717C172.414 26.235 173.034 24.7119 173.035 23.126V21.5861C173.035 20.0168 172.429 18.5082 171.342 17.3742C170.256 16.2401 168.773 15.5681 167.203 15.4981L126.516 13.6788C125.693 13.6421 124.87 13.7723 124.098 14.0617C123.326 14.351 122.621 14.7935 122.025 15.3624C121.429 15.9314 120.955 16.6149 120.631 17.3719C120.306 18.1289 120.139 18.9436 120.139 19.7668V24.2863C120.143 25.099 120.309 25.9028 120.628 26.6503C120.947 27.3979 121.413 28.0742 121.998 28.6395C122.583 29.2047 123.275 29.6475 124.033 29.9417C124.792 30.236 125.602 30.3757 126.416 30.3528Z" fill="#E5674E"/>
<path opacity="0.2" d="M89.5733 30.3528L48.8862 29.214C47.2985 29.1693 45.7907 28.5084 44.683 27.3717C43.5754 26.235 42.9551 24.7119 42.9539 23.126V21.5861C42.9541 20.0168 43.5606 18.5082 44.6469 17.3742C45.7332 16.2401 47.2157 15.5681 48.7858 15.4981L89.4729 13.6788C90.2966 13.6421 91.1192 13.7723 91.8911 14.0617C92.663 14.351 93.3683 14.7935 93.9642 15.3624C94.5601 15.9314 95.0345 16.6149 95.3586 17.3719C95.6827 18.1289 95.8498 18.9436 95.85 19.7668V24.2863C95.8465 25.099 95.6803 25.9028 95.3611 26.6503C95.0419 27.3979 94.5762 28.0742 93.9913 28.6395C93.4065 29.2047 92.7144 29.6475 91.9557 29.9417C91.1969 30.236 90.3869 30.3757 89.5733 30.3528Z" fill="#F5F5F5"/>
<path opacity="0.2" d="M126.416 30.3528L167.103 29.214C168.691 29.1693 170.198 28.5084 171.306 27.3717C172.414 26.235 173.034 24.7119 173.035 23.126V21.5861C173.035 20.0168 172.429 18.5082 171.342 17.3742C170.256 16.2401 168.773 15.5681 167.203 15.4981L126.516 13.6788C125.693 13.6421 124.87 13.7723 124.098 14.0617C123.326 14.351 122.621 14.7935 122.025 15.3624C121.429 15.9314 120.955 16.6149 120.631 17.3719C120.306 18.1289 120.139 18.9436 120.139 19.7668V24.2863C120.143 25.099 120.309 25.9028 120.628 26.6503C120.947 27.3979 121.413 28.0742 121.998 28.6395C122.583 29.2047 123.275 29.6475 124.033 29.9417C124.792 30.236 125.602 30.3757 126.416 30.3528Z" fill="#F5F5F5"/>
<path d="M39.6111 12.7835H37.122C33.4732 12.7835 30.5154 15.7369 30.5154 19.3801V23.6417C30.5154 27.2848 33.4732 30.2382 37.122 30.2382H39.6111C43.2599 30.2382 46.2177 27.2848 46.2177 23.6417V19.3801C46.2177 15.7369 43.2599 12.7835 39.6111 12.7835Z" fill="#E5674E"/>
<path d="M179.168 12.7835H176.679C173.03 12.7835 170.073 15.7369 170.073 19.3801V23.6417C170.073 27.2848 173.03 30.2382 176.679 30.2382H179.168C182.817 30.2382 185.775 27.2848 185.775 23.6417V19.3801C185.775 15.7369 182.817 12.7835 179.168 12.7835Z" fill="#E5674E"/>
<path d="M41.2609 8.93735H35.7662C34.6648 8.93735 33.772 9.82881 33.772 10.9285V11.6805C33.772 12.7802 34.6648 13.6717 35.7662 13.6717H41.2609C42.3623 13.6717 43.2551 12.7802 43.2551 11.6805V10.9285C43.2551 9.82881 42.3623 8.93735 41.2609 8.93735Z" fill="#E5674E"/>
<path d="M38.7791 0.944214H37.6529C36.0009 0.944214 34.6616 2.2814 34.6616 3.93091V8.60793C34.6616 10.2574 36.0009 11.5946 37.6529 11.5946H38.7791C40.4311 11.5946 41.7704 10.2574 41.7704 8.60793V3.93091C41.7704 2.2814 40.4311 0.944214 38.7791 0.944214Z" fill="#E5674E"/>
<path d="M19.8486 8.93735C30.8107 8.93735 39.6972 7.74446 39.6972 6.27295C39.6972 4.80144 30.8107 3.60855 19.8486 3.60855C8.88655 3.60855 0 4.80144 0 6.27295C0 7.74446 8.88655 8.93735 19.8486 8.93735Z" fill="#E5674E"/>
<path d="M56.5905 8.93735C67.5526 8.93735 76.4391 7.74446 76.4391 6.27295C76.4391 4.80144 67.5526 3.60855 56.5905 3.60855C45.6285 3.60855 36.7419 4.80144 36.7419 6.27295C36.7419 7.74446 45.6285 8.93735 56.5905 8.93735Z" fill="#E5674E"/>
<path d="M181.119 8.93735H175.625C174.523 8.93735 173.63 9.82881 173.63 10.9285V11.6805C173.63 12.7802 174.523 13.6717 175.625 13.6717H181.119C182.221 13.6717 183.114 12.7802 183.114 11.6805V10.9285C183.114 9.82881 182.221 8.93735 181.119 8.93735Z" fill="#E5674E"/>
<path d="M178.638 0.944214H177.511C175.859 0.944214 174.52 2.2814 174.52 3.93091V8.60793C174.52 10.2574 175.859 11.5946 177.511 11.5946H178.638C180.29 11.5946 181.629 10.2574 181.629 8.60793V3.93091C181.629 2.2814 180.29 0.944214 178.638 0.944214Z" fill="#E5674E"/>
<path d="M159.7 8.93735C170.662 8.93735 179.549 7.74446 179.549 6.27295C179.549 4.80144 170.662 3.60855 159.7 3.60855C148.738 3.60855 139.852 4.80144 139.852 6.27295C139.852 7.74446 148.738 8.93735 159.7 8.93735Z" fill="#E5674E"/>
<path d="M196.442 8.93735C207.404 8.93735 216.29 7.74446 216.29 6.27295C216.29 4.80144 207.404 3.60855 196.442 3.60855C185.48 3.60855 176.593 4.80144 176.593 6.27295C176.593 7.74446 185.48 8.93735 196.442 8.93735Z" fill="#E5674E"/>
<path opacity="0.2" d="M19.8486 8.93735C30.8107 8.93735 39.6972 7.74446 39.6972 6.27295C39.6972 4.80144 30.8107 3.60855 19.8486 3.60855C8.88655 3.60855 0 4.80144 0 6.27295C0 7.74446 8.88655 8.93735 19.8486 8.93735Z" fill="#F5F5F5"/>
<path opacity="0.2" d="M56.5905 8.93735C67.5526 8.93735 76.4391 7.74446 76.4391 6.27295C76.4391 4.80144 67.5526 3.60855 56.5905 3.60855C45.6285 3.60855 36.7419 4.80144 36.7419 6.27295C36.7419 7.74446 45.6285 8.93735 56.5905 8.93735Z" fill="#F5F5F5"/>
<path opacity="0.2" d="M159.7 8.93735C170.662 8.93735 179.549 7.74446 179.549 6.27295C179.549 4.80144 170.662 3.60855 159.7 3.60855C148.738 3.60855 139.852 4.80144 139.852 6.27295C139.852 7.74446 148.738 8.93735 159.7 8.93735Z" fill="#F5F5F5"/>
<path opacity="0.2" d="M196.442 8.93735C207.404 8.93735 216.29 7.74446 216.29 6.27295C216.29 4.80144 207.404 3.60855 196.442 3.60855C185.48 3.60855 176.593 4.80144 176.593 6.27295C176.593 7.74446 185.48 8.93735 196.442 8.93735Z" fill="#F5F5F5"/>
<path d="M116.007 31.42H100.283C98.0806 31.42 96.2949 33.203 96.2949 35.4023V36.9064C96.2949 39.1058 98.0806 40.8887 100.283 40.8887H116.007C118.21 40.8887 119.996 39.1058 119.996 36.9064V35.4023C119.996 33.203 118.21 31.42 116.007 31.42Z" fill="#E5674E"/>
<path opacity="0.2" d="M116.007 31.42H100.283C98.0806 31.42 96.2949 33.203 96.2949 35.4023V36.9064C96.2949 39.1058 98.0806 40.8887 100.283 40.8887H116.007C118.21 40.8887 119.996 39.1058 119.996 36.9064V35.4023C119.996 33.203 118.21 31.42 116.007 31.42Z" fill="#F5F5F5"/>
</g>
</svg>
